<?xml version="1.0" encoding="utf-8"?><svg xmlns="http://www.w3.org/2000/svg" xmlns:xlink="http://www.w3.org/1999/xlink"><symbol viewBox="0 0 26.9 32" id="apple" xmlns="http://www.w3.org/2000/svg"><path d="M26.31 24.91A17.13 17.13 0 0124.6 28a15.71 15.71 0 01-2.22 2.68A4.4 4.4 0 0119.54 32a7.3 7.3 0 01-2.62-.63 7.62 7.62 0 00-2.83-.64 7.74 7.74 0 00-2.9.64 8.76 8.76 0 01-2.5.67 4.1 4.1 0 01-2.91-1.29A16.93 16.93 0 013.47 28 19.3 19.3 0 011 23.08a17.73 17.73 0 01-1-5.81 10.55 10.55 0 011.38-5.54 8 8 0 016.85-4.05 9.27 9.27 0 013 .71 9.8 9.8 0 002.41.71 14.94 14.94 0 002.68-.83A9.07 9.07 0 0120 7.62a7.76 7.76 0 016.06 3.2 6.73 6.73 0 00-3.58 6.12A6.83 6.83 0 0024.69 22a7.79 7.79 0 002.21 1.46c-.21.47-.39 1-.59 1.42zM20.13.63a6.85 6.85 0 01-1.75 4.48 6 6 0 01-5 2.45 5.86 5.86 0 010-.61 7 7 0 011.86-4.52 7.26 7.26 0 012.25-1.7A6.62 6.62 0 0120.07 0a2.32 2.32 0 01.06.63z"/></symbol><symbol viewBox="0 0 32 32" id="arrow-down-o" xmlns="http://www.w3.org/2000/svg"><path d="M16 30L5 18m22 0L16 30m0-28v28" fill="none" stroke="currentColor" stroke-linecap="round" stroke-linejoin="round" stroke-width="2.5"/></symbol><symbol viewBox="0 0 32 32" id="arrow-left-o" xmlns="http://www.w3.org/2000/svg"><path d="M2 16L14 5m0 22L2 16m28 0H2" fill="none" stroke="currentColor" stroke-linecap="round" stroke-linejoin="round" stroke-width="2.5"/></symbol><symbol viewBox="0 0 32 32" id="arrow-right-o" xmlns="http://www.w3.org/2000/svg"><path d="M18 5l12 11m0 0L18 27m12-11H2" fill="none" stroke="currentColor" stroke-linecap="round" stroke-linejoin="round" stroke-width="2.5"/></symbol><symbol viewBox="0 0 32 32" id="arrow-up-o" xmlns="http://www.w3.org/2000/svg"><path d="M5 14L16 2m0 0l11 12M16 2v28" fill="none" stroke="currentColor" stroke-linecap="round" stroke-linejoin="round" stroke-width="2.5"/></symbol><symbol viewBox="0 0 32 24" id="check-o" xmlns="http://www.w3.org/2000/svg"><path fill="none" stroke="currentColor" stroke-miterlimit="10" d="M1.45 11.85l9.28 9.25L30.55 1.5"/></symbol><symbol viewBox="0 0 32 19.28" id="chevron-down-o" xmlns="http://www.w3.org/2000/svg"><path fill="none" stroke="currentColor" stroke-miterlimit="10" stroke-width="4" d="M1.5 1.4l14.63 15 14.37-15"/></symbol><symbol viewBox="0 0 19.28 32" id="chevron-left-o" xmlns="http://www.w3.org/2000/svg"><path fill="none" stroke="currentColor" stroke-miterlimit="10" stroke-width="4" d="M17.88 1.5l-15 14.37 15 14.63"/></symbol><symbol viewBox="0 0 19.28 32" id="chevron-right-o" xmlns="http://www.w3.org/2000/svg"><path fill="none" stroke="currentColor" stroke-miterlimit="10" stroke-width="4" d="M1.4 30.5l15-14.63L1.4 1.5"/></symbol><symbol viewBox="0 0 32 19.28" id="chevron-up-o" xmlns="http://www.w3.org/2000/svg"><path fill="none" stroke="currentColor" stroke-miterlimit="10" stroke-width="4" d="M30.5 17.88l-14.37-15-14.63 15"/></symbol><symbol viewBox="0 0 32 32" id="dribbble" xmlns="http://www.w3.org/2000/svg"><path d="M16 0a16 16 0 1016 16A16 16 0 0016 0zm10.43 7.55a13.38 13.38 0 013 8 22.6 22.6 0 00-9-.09c-.48-1.12-1-2.2-1.48-3.21a26.68 26.68 0 007.48-4.7zm-1.81-1.84A23.78 23.78 0 0117.75 10a62.59 62.59 0 00-4.55-7.14 13.57 13.57 0 012.8-.29 13.35 13.35 0 018.62 3.14zm-14-2a60.23 60.23 0 014.68 7.22 42.76 42.76 0 01-12.36 1.94 13.5 13.5 0 017.67-9.17zm-8 11.75h.08a46.59 46.59 0 008.14-.75 39.89 39.89 0 005.7-1.47c.47.92.93 1.9 1.38 2.93a24 24 0 00-6.28 3.11 28.44 28.44 0 00-5.84 5.4A13.35 13.35 0 012.57 16c0-.18.01-.37.01-.55zm5 11a25.86 25.86 0 015.52-5.13 21.88 21.88 0 015.72-2.82 49.37 49.37 0 012.7 9.7A13.21 13.21 0 0116 29.43a13.35 13.35 0 01-8.39-2.96zm16.31.37a53.48 53.48 0 00-2.53-8.92 20.31 20.31 0 017.86.26 13.46 13.46 0 01-5.34 8.67z"/></symbol><symbol viewBox="0 0 16.76 32" id="facebook" xmlns="http://www.w3.org/2000/svg"><path d="M13.71 5.33h3.05V.15C16.3.15 14.48 0 12.34 0 7.92 0 5 2.59 5 7.47v4.26H0v5.64h5V32h6V17.37h4.88l.76-5.64h-5.82V8.08c0-1.68.46-2.75 2.89-2.75z"/></symbol><symbol viewBox="0 0 32 32" id="github" xmlns="http://www.w3.org/2000/svg"><path d="M16.05 0A16.22 16.22 0 000 16.43 16.38 16.38 0 0011 32c.86.11 1.07-.33 1.07-.76v-2.87c-4.49 1-5.45-2.19-5.45-2.19a4.63 4.63 0 00-1.82-2.41c-1.5-1 .1-1 .1-1a3.37 3.37 0 012.46 1.65c1.4 2.51 3.75 1.75 4.71 1.31a3.05 3.05 0 011.07-2.19c-3.53-.44-7.27-1.86-7.27-8.11a6.64 6.64 0 011.6-4.38 5.84 5.84 0 01.13-4.37S9 6.24 12 8.32a16.92 16.92 0 014.06-.54 17 17 0 014.07.54c3.1-2.08 4.39-1.64 4.39-1.64a5.82 5.82 0 01.1 4.38 6.13 6.13 0 011.61 4.38c0 6.36-3.75 7.67-7.28 8.11A4.25 4.25 0 0120 26.62v4.49a.77.77 0 001.07.76A16.29 16.29 0 0032 16.32 16 16 0 0016.05 0z"/></symbol><symbol viewBox="0 0 29 32" id="google-play" xmlns="http://www.w3.org/2000/svg"><path d="M.75 31.55l13.88-14 4.9 4.94L3 31.74a2 2 0 01-2 0zm12.48-15.41L0 29.49V2.79zm8.27-5.52l6.5 3.63a2 2 0 010 3.5l-6.64 3.73L16 16.14zM.61.58A1.78 1.78 0 011 .27a2 2 0 012 0l16.7 9.34-5.07 5.12z"/></symbol><symbol viewBox="0 0 32 32" id="instagram" xmlns="http://www.w3.org/2000/svg"><path d="M3 10v12a7.07 7.07 0 007 7h12a7.07 7.07 0 007-7V10a7.07 7.07 0 00-7-7H10a7.07 7.07 0 00-7 7zm-3 0A9.81 9.81 0 0110 0h12a9.81 9.81 0 0110 10v12a9.81 9.81 0 01-10 10H10A9.81 9.81 0 010 22zm16 10.71A4.71 4.71 0 1011.29 16 4.66 4.66 0 0016 20.71zm0 2.82A7.53 7.53 0 1123.53 16 7.55 7.55 0 0116 23.53zm9.41-15.06a1.88 1.88 0 01-3.76 0 1.88 1.88 0 113.76 0z"/></symbol><symbol viewBox="0 0 32 30.48" id="linkedin" xmlns="http://www.w3.org/2000/svg"><path d="M32 18.72v11.76h-7V19.59c0-2.83-1-4.59-3.45-4.59a3.1 3.1 0 00-3.26 2.39 3.24 3.24 0 00-.22 1.53v11.56h-7V10h7v2.83a7 7 0 016.09-3.48c4.57.01 7.84 3.06 7.84 9.37zM3.92 0C1.52 0 0 1.52 0 3.48A3.5 3.5 0 003.7 7c2.4 0 3.92-1.56 3.92-3.52A3.37 3.37 0 003.92 0zM.44 30.48h7V10h-7z"/></symbol><symbol viewBox="0 0 12 32" id="long-arrow-down-o" xmlns="http://www.w3.org/2000/svg"><path d="M11.67 26.28L6 31.33l-5.67-5M6 0v31.32" fill="none" stroke="currentColor" stroke-miterlimit="10"/></symbol><symbol viewBox="0 0 32 12" id="long-arrow-left-o" xmlns="http://www.w3.org/2000/svg"><path d="M5.67 11.67L.67 6 5.72.33M.68 6H32" fill="none" stroke="currentColor" stroke-miterlimit="10"/></symbol><symbol viewBox="0 0 32 12" id="long-arrow-right-o" xmlns="http://www.w3.org/2000/svg"><path d="M26.28.33l5 5.67-5 5.67M0 6h31.32" fill="none" stroke="currentColor" stroke-miterlimit="10"/></symbol><symbol viewBox="0 0 12 32" id="long-arrow-up-o" xmlns="http://www.w3.org/2000/svg"><path d="M.33 5.67L6 .67l5.67 5.05M6 .68V32" fill="none" stroke="currentColor" stroke-miterlimit="10"/></symbol><symbol viewBox="0 0 32 32" id="medium" xmlns="http://www.w3.org/2000/svg"><path d="M0 0v32h32V0zm26.73 7.53L25 9.22a.7.7 0 00-.19.57v12.05a.69.69 0 00.19.56l1.69 1.69v.38h-8.62v-.38l1.69-1.69c.19-.19.19-.19.19-.56v-10l-4.89 12.25h-.57L8.85 11.86v8.28c0 .38 0 .75.37.94l2.26 2.83v.37h-6.4v-.37l2.26-2.83a1.42 1.42 0 00.38-.94v-9.41a1.1 1.1 0 00-.19-.73L5.27 7.53v-.38h6.21l4.9 10.54 4.33-10.54h6z"/></symbol><symbol viewBox="0 0 16 16" id="play" xmlns="http://www.w3.org/2000/svg"><path d="M4 2.06v11.19l8.58-5.6L4 2.05zm-1-.12a.93.93 0 011.45-.79l8.76 5.72a.93.93 0 010 1.57l-8.76 5.71A.93.93 0 013 13.37V1.94z"/></symbol><symbol viewBox="0 0 32 28" id="telegram" xmlns="http://www.w3.org/2000/svg"><path d="M.52 13.31L7.9 16.1l2.92 9.2a.87.87 0 001.4.41l4.17-3.34a1.09 1.09 0 011.53 0l7.38 5.43a.85.85 0 001.39-.55L32 1.05a.83.83 0 00-1.11-1L.52 11.64a.93.93 0 000 1.67zm9.75 1.26l14.47-8.92c.28-.14.56.28.28.42l-11.83 11a3.34 3.34 0 00-.84 1.54l-.41 3.06c0 .42-.56.42-.7 0l-1.53-5.43a1.33 1.33 0 01.56-1.67z"/></symbol><symbol viewBox="0 0 32 32" id="times-o" xmlns="http://www.w3.org/2000/svg"><path fill="none" stroke="currentColor" stroke-miterlimit="10" stroke-width="4" d="M1.5 1.5l29 29M1.5 30.5l29-29"/></symbol><symbol viewBox="0 0 32 26" id="twitter" xmlns="http://www.w3.org/2000/svg"><path d="M27.8 4.2a7.52 7.52 0 003-3.6 10.77 10.77 0 01-4.2 1.6A7.18 7.18 0 0021.8 0a6.49 6.49 0 00-6.4 6.6 4.4 4.4 0 00.2 1.6 19.64 19.64 0 01-13.4-7 6.64 6.64 0 00-1 3.2 6.65 6.65 0 003 5.6 7.41 7.41 0 01-3-.8 6.85 6.85 0 005.4 6.6H4.8a2.54 2.54 0 01-1.2-.2 6.62 6.62 0 006 4.6 13 13 0 01-8 2.8H0a19 19 0 0010 3c12 0 18.6-10 18.6-18.6v-.8A27.25 27.25 0 0032 3.2a41.87 41.87 0 01-4.2 1z"/></symbol><symbol viewBox="0 0 32 26" id="vimeo" xmlns="http://www.w3.org/2000/svg"><path d="M27.4.13C30.53.13 32 2 32 5.28V6c-.18 2.94-2.21 7-6.62 12-4.23 5.14-8.09 7.9-11 7.9-1.83 0-3.31-1.65-4.59-4.78l-1.51-4.44L7 12.26c-.93-3.12-2-4.59-2.95-4.59A7.24 7.24 0 001.47 9L0 7.11l2.39-2L4.6 3.25C6.62 1.6 8.28.68 9.2.68h.36c2.21 0 3.5 1.65 4 4.78.37 1.84.55 3.31.73 4.41a15.31 15.31 0 00.56 2.39c1.1 3 1.84 4.42 2.76 4.42.73 0 1.65-.92 2.94-2.94s2-3.5 2-4.42v-.55c0-1.29-.73-2-2.21-2a13 13 0 00-2.34.34c1.66-4.59 4.78-7 9-7z"/></symbol><symbol viewBox="0 0 32 22.5" id="youtube" xmlns="http://www.w3.org/2000/svg"><path d="M31.33 3.55A4 4 0 0028.5.72C26 .05 16 .05 16 .05S6 .05 3.5.72A4 4 0 00.67 3.55a41.51 41.51 0 00-.67 7.7A41.51 41.51 0 00.67 19a4 4 0 002.83 2.78c2.49.67 12.5.67 12.5.67s10 0 12.5-.67A4 4 0 0031.33 19a41.51 41.51 0 00.67-7.7 41.51 41.51 0 00-.67-7.75zM12.8 16.05v-9.6l8.31 4.8z"/></symbol></svg>