<svg width="623" height="409" fill="none" xmlns="http://www.w3.org/2000/svg"><path d="M0 42h623v353c0 7.732-6.268 14-14 14H14c-7.732 0-14-6.268-14-14V42Z" fill="#fff"/><path d="M0 14C0 6.268 6.268 0 14 0h595c7.732 0 14 6.268 14 14v28H0V14Z" fill="#fff" fill-opacity=".4"/><circle cx="23" cy="21" r="8" fill="#fff"/><circle cx="48" cy="21" r="8" fill="#fff"/><circle cx="73" cy="21" r="8" fill="#fff"/><rect x="277.402" y="321" width="173.2" height="43.364" rx="21.682" fill="#A7FF9F"/><path d="M300.3 348.636c-.921 0-1.813-.14-2.676-.42-.852-.291-1.522-.665-2.012-1.12l.647-1.364c.467.42 1.061.764 1.785 1.032a6.784 6.784 0 0 0 2.256.385c1.015 0 1.773-.169 2.275-.507.501-.35.752-.811.752-1.382 0-.42-.14-.759-.42-1.015a2.603 2.603 0 0 0-1.014-.613 18.228 18.228 0 0 0-1.697-.472c-.922-.221-1.668-.443-2.24-.665a3.812 3.812 0 0 1-1.452-1.014c-.396-.467-.595-1.091-.595-1.872 0-.653.169-1.242.508-1.767.349-.525.874-.945 1.574-1.26.7-.315 1.569-.472 2.607-.472.723 0 1.434.093 2.134.28.7.186 1.301.454 1.802.804l-.577 1.4a6.089 6.089 0 0 0-1.645-.735 5.941 5.941 0 0 0-1.714-.262c-.991 0-1.738.181-2.239.542-.49.362-.735.828-.735 1.4 0 .42.14.764.42 1.032.28.256.624.461 1.032.612.42.14.985.292 1.697.455.921.222 1.662.443 2.222.665.56.221 1.038.56 1.434 1.015.408.454.613 1.067.613 1.837a3.17 3.17 0 0 1-.525 1.767c-.35.524-.881.944-1.592 1.259-.712.303-1.586.455-2.625.455Zm11.916-.682c-.245.21-.548.373-.91.49a3.986 3.986 0 0 1-1.119.157c-.933 0-1.656-.251-2.17-.752-.513-.502-.769-1.219-.769-2.152v-5.091h-1.575v-1.382h1.575v-2.03h1.679v2.03h2.659v1.382h-2.659v5.021c0 .501.123.886.368 1.155.256.268.618.402 1.084.402.513 0 .951-.146 1.312-.437l.525 1.207Zm5.057-8.818c1.283 0 2.263.315 2.939.945.689.63 1.033 1.569 1.033 2.817v5.598h-1.592v-1.225c-.28.432-.683.764-1.208.998-.513.221-1.125.332-1.837.332-1.038 0-1.871-.251-2.501-.752-.618-.502-.928-1.161-.928-1.977 0-.817.298-1.47.893-1.96.595-.501 1.539-.752 2.834-.752h2.659v-.332c0-.723-.21-1.277-.63-1.662-.42-.385-1.038-.578-1.854-.578a4.79 4.79 0 0 0-1.61.28 4.002 4.002 0 0 0-1.329.718l-.7-1.26a4.958 4.958 0 0 1 1.714-.875 6.991 6.991 0 0 1 2.117-.315Zm-.385 8.17c.642 0 1.196-.14 1.662-.419a2.5 2.5 0 0 0 1.015-1.225v-1.295h-2.589c-1.423 0-2.134.478-2.134 1.435 0 .466.18.834.542 1.102.361.268.863.402 1.504.402Zm8.724-6.525a2.87 2.87 0 0 1 1.295-1.225c.572-.28 1.265-.42 2.082-.42v1.627a3.455 3.455 0 0 0-.385-.017c-.91 0-1.627.274-2.152.822-.513.537-.77 1.306-.77 2.309v4.619h-1.679v-9.272h1.609v1.557Zm10.686 7.173c-.245.21-.548.373-.909.49a3.998 3.998 0 0 1-1.12.157c-.933 0-1.656-.251-2.169-.752-.514-.502-.77-1.219-.77-2.152v-5.091h-1.575v-1.382h1.575v-2.03h1.679v2.03h2.66v1.382h-2.66v5.021c0 .501.123.886.368 1.155.256.268.618.402 1.084.402.514 0 .951-.146 1.313-.437l.524 1.207Zm14.462.542-2.642-3.761c-.326.023-.583.035-.77.035h-3.026v3.726h-1.75V336.25h4.776c1.587 0 2.835.379 3.744 1.137.91.758 1.365 1.802 1.365 3.131 0 .945-.233 1.75-.7 2.415-.466.665-1.131 1.149-1.994 1.452l2.904 4.111h-1.907Zm-3.464-5.213c1.108 0 1.954-.239 2.537-.718.583-.478.875-1.16.875-2.047 0-.886-.292-1.562-.875-2.029-.583-.478-1.429-.717-2.537-.717h-2.974v5.511h2.974Zm15.773.629c0 .129-.012.298-.035.508h-7.523c.105.816.461 1.475 1.067 1.977.618.49 1.382.734 2.292.734 1.108 0 2-.373 2.677-1.119l.927 1.084c-.42.49-.945.864-1.575 1.12-.618.257-1.312.385-2.081.385-.98 0-1.849-.198-2.607-.595a4.423 4.423 0 0 1-1.767-1.697c-.408-.723-.613-1.539-.613-2.449 0-.898.199-1.709.595-2.432a4.347 4.347 0 0 1 1.662-1.679c.712-.409 1.511-.613 2.397-.613.887 0 1.674.204 2.362.613a4.1 4.1 0 0 1 1.627 1.679c.397.723.595 1.551.595 2.484Zm-4.584-3.359c-.805 0-1.481.245-2.029.735-.537.49-.852 1.132-.945 1.925h5.948c-.093-.782-.414-1.417-.962-1.907-.536-.502-1.207-.753-2.012-.753Zm10.607 8.048c-.944 0-1.79-.204-2.536-.612a4.51 4.51 0 0 1-1.732-1.68c-.42-.723-.63-1.539-.63-2.449 0-.91.21-1.72.63-2.432a4.35 4.35 0 0 1 1.732-1.679c.746-.409 1.592-.613 2.536-.613.84 0 1.587.169 2.24.508a3.597 3.597 0 0 1 1.539 1.469l-1.277.822a2.85 2.85 0 0 0-1.085-.997 3.097 3.097 0 0 0-1.434-.332 3.37 3.37 0 0 0-1.645.402 2.932 2.932 0 0 0-1.137 1.155c-.268.49-.402 1.055-.402 1.697 0 .653.134 1.23.402 1.732.28.49.659.869 1.137 1.137a3.37 3.37 0 0 0 1.645.402c.525 0 1.003-.11 1.434-.332a2.85 2.85 0 0 0 1.085-.997l1.277.805a3.709 3.709 0 0 1-1.539 1.487c-.653.338-1.4.507-2.24.507Zm9.439 0c-.922 0-1.75-.204-2.485-.612a4.518 4.518 0 0 1-1.732-1.68c-.408-.723-.612-1.539-.612-2.449 0-.91.204-1.72.612-2.432a4.357 4.357 0 0 1 1.732-1.679c.735-.409 1.563-.613 2.485-.613.921 0 1.743.204 2.466.613a4.239 4.239 0 0 1 1.715 1.679c.42.712.63 1.522.63 2.432 0 .91-.21 1.726-.63 2.449a4.391 4.391 0 0 1-1.715 1.68c-.723.408-1.545.612-2.466.612Zm0-1.47c.594 0 1.125-.134 1.592-.402.478-.28.851-.665 1.119-1.155.268-.501.403-1.073.403-1.714 0-.642-.135-1.207-.403-1.697a2.813 2.813 0 0 0-1.119-1.155 3.141 3.141 0 0 0-1.592-.402c-.595 0-1.132.134-1.61.402-.467.269-.84.653-1.12 1.155-.268.49-.402 1.055-.402 1.697 0 .641.134 1.213.402 1.714.28.49.653.875 1.12 1.155a3.236 3.236 0 0 0 1.61.402Zm8.393-6.35a2.865 2.865 0 0 1 1.295-1.225c.571-.28 1.265-.42 2.082-.42v1.627a3.468 3.468 0 0 0-.385-.017c-.91 0-1.627.274-2.152.822-.513.537-.77 1.306-.77 2.309v4.619h-1.68v-9.272h1.61v1.557Zm13.759-5.266v12.981h-1.61v-1.469a3.639 3.639 0 0 1-1.417 1.172 4.391 4.391 0 0 1-1.889.402c-.898 0-1.703-.198-2.415-.595a4.332 4.332 0 0 1-1.679-1.662c-.397-.723-.595-1.551-.595-2.484s.198-1.755.595-2.467a4.346 4.346 0 0 1 1.679-1.662c.712-.396 1.517-.595 2.415-.595.664 0 1.277.129 1.837.385a3.504 3.504 0 0 1 1.399 1.102v-5.108h1.68Zm-4.776 11.616c.583 0 1.113-.134 1.592-.402.478-.28.851-.665 1.119-1.155.269-.501.403-1.073.403-1.714 0-.642-.134-1.207-.403-1.697a2.813 2.813 0 0 0-1.119-1.155 3.203 3.203 0 0 0-1.592-.402c-.595 0-1.132.134-1.61.402-.467.269-.84.653-1.12 1.155-.268.49-.402 1.055-.402 1.697 0 .641.134 1.213.402 1.714.28.49.653.875 1.12 1.155a3.236 3.236 0 0 0 1.61.402Zm7.604-7.907h1.679v9.272h-1.679v-9.272Zm.839-1.785c-.326 0-.6-.105-.822-.315a1.046 1.046 0 0 1-.315-.769c0-.304.105-.56.315-.77.222-.222.496-.333.822-.333.327 0 .595.105.805.315a.966.966 0 0 1 .332.753c0 .315-.11.583-.332.804-.21.21-.478.315-.805.315Zm8.648 1.697c1.178 0 2.111.344 2.799 1.032.7.677 1.05 1.674 1.05 2.992v5.336h-1.68v-5.143c0-.898-.215-1.575-.647-2.03-.431-.455-1.05-.682-1.854-.682-.91 0-1.627.268-2.152.805-.525.524-.788 1.283-.788 2.274v4.776h-1.679v-9.272h1.609v1.399a3.288 3.288 0 0 1 1.365-1.102c.583-.256 1.242-.385 1.977-.385Zm15.528.088v8.012c0 1.622-.402 2.817-1.207 3.587-.805.781-2.006 1.172-3.604 1.172a8.426 8.426 0 0 1-2.501-.367c-.794-.234-1.435-.572-1.925-1.015l.805-1.295c.431.374.962.665 1.592.875a6 6 0 0 0 1.977.333c1.085 0 1.883-.257 2.397-.77.524-.513.787-1.295.787-2.345v-.734a3.788 3.788 0 0 1-1.47 1.084 4.89 4.89 0 0 1-1.872.35c-.886 0-1.691-.186-2.414-.56a4.324 4.324 0 0 1-1.679-1.592c-.409-.688-.613-1.469-.613-2.344 0-.875.204-1.65.613-2.327a4.165 4.165 0 0 1 1.679-1.592c.723-.373 1.528-.56 2.414-.56.7 0 1.347.129 1.942.385a3.615 3.615 0 0 1 1.487 1.137v-1.434h1.592Zm-4.828 7.418c.606 0 1.149-.129 1.627-.385.49-.257.869-.613 1.137-1.067.28-.467.42-.992.42-1.575 0-.898-.298-1.621-.892-2.169-.595-.56-1.359-.84-2.292-.84-.945 0-1.715.28-2.31.84-.594.548-.892 1.271-.892 2.169 0 .583.134 1.108.403 1.575.28.454.659.81 1.137 1.067.49.256 1.044.385 1.662.385Z" fill="#000"/><rect x="20" y="125" width="108" height="12" rx="4" fill="#8330C2"/><rect x="20" y="149" width="63" height="12" rx="4" fill="#EAEAEA"/><rect x="20" y="173" width="83" height="12" rx="4" fill="#EAEAEA"/><path d="M29.053 85.528c1.84.08 3.684-.103 5.473-.542.439-.108.873-.234 1.302-.377.212-.07.43-.147.634-.22.203-.074.39-.163.594-.255a9.503 9.503 0 0 0 2.154-1.375 6.08 6.08 0 0 0 2.238-4.069 4.663 4.663 0 0 0-.33-2.163 4.116 4.116 0 0 0-.529-.92 4.334 4.334 0 0 0-.732-.787 4.124 4.124 0 0 0-.89-.621 4.683 4.683 0 0 0-1.003-.386 5.152 5.152 0 0 0-2.189-.092 5.364 5.364 0 0 0-2.071.82 4.422 4.422 0 0 0-1.46 1.572 3.666 3.666 0 0 0-.36.975 5.256 5.256 0 0 0-.113 1.121c.016.79.173 1.569.462 2.304.313.8.702 1.57 1.16 2.298.462.763.982 1.516 1.508 2.3l.779 1.174c.252.374.508.742.773 1.09a10.816 10.816 0 0 0 1.717 1.839c.58.5 1.27.86 2.013 1.05.359.087.727.126 1.096.117h.141a.835.835 0 0 0 .133 0 2.17 2.17 0 0 0 .234-.033c.16-.033.317-.082.468-.144a5.1 5.1 0 0 0 1.8-1.404 13.603 13.603 0 0 0 1.496-2.144 44.492 44.492 0 0 0 2.383-4.942l1.108-2.601.307-.659.077-.165.059-.141c.04-.092.083-.184.117-.279.145-.363.249-.741.308-1.127.05-.37.05-.744 0-1.113a3.707 3.707 0 0 0-.308-1.047 4.033 4.033 0 0 0-.616-.92 3.126 3.126 0 0 0-.378-.376l-.053-.031c.022 0 0 0 0 0l-.03-.018-.145-.102-.286-.196a385.165 385.165 0 0 0-4.654-3.125l-1.167-.756c-.19-.123-.388-.249-.576-.362l-.15-.098-.185-.116a3.95 3.95 0 0 1-1.764-2.73 4.582 4.582 0 0 1-.052-.466v-.53.123-.99c0-.444 0-.38-.043-.475a.35.35 0 0 0-.166-.153.444.444 0 0 0-.111-.021h-.434l-3.955.033-.985.006h-.459a.197.197 0 0 0-.095.022.307.307 0 0 0-.139.132.309.309 0 0 0-.025.089.063.063 0 0 0 0 .024V63.825l.019.977v.579a5.128 5.128 0 0 1-.074.637 4.01 4.01 0 0 1-.459 1.33 3.43 3.43 0 0 1-.738.895c-.056.046-.114.089-.176.135l-.104.067-.059.037-.105.055.136-.077c-2.463 1.64-4.857 3.37-7.314 5.03l-.113.078-.083.06c-.053.04-.114.077-.164.12l-.147.126-.142.129c-.17.17-.318.359-.443.563a2.865 2.865 0 0 0-.397 1.406 4.204 4.204 0 0 0 .144 1.238c.019.065.037.132.056.181v.028l.024.067.05.135.797 2.068c.686 1.856 1.357 3.72 2.155 5.515.852 1.9 1.619 4.028 3.05 5.046a4.507 4.507 0 0 0 1.945.683c.59.082 1.187.112 1.782.092a.617.617 0 0 1 .597.44.61.61 0 0 1-.272.671.619.619 0 0 1-.242.087c-.52.059-1.045.078-1.57.058a7.798 7.798 0 0 1-2.268-.432 5.473 5.473 0 0 1-2.031-1.263c-1.078-1.063-1.715-2.616-2.404-3.942-.342-.66-.687-1.318-1.02-1.983a251.6 251.6 0 0 1-1.97-3.983l-.953-2.03-.059-.123-.027-.062-.043-.1a3.586 3.586 0 0 1-.13-.34 6.39 6.39 0 0 1-.194-.66 6.555 6.555 0 0 1-.184-1.378 5.415 5.415 0 0 1 .692-2.853 5.4 5.4 0 0 1 .923-1.18l.271-.244c.09-.08.185-.15.28-.224.096-.073.191-.135.29-.202l.145-.098.11-.074c2.5-1.58 5.067-3.063 7.563-4.644l.135-.077-.049.025.022-.016a.79.79 0 0 0 .064-.055 1.12 1.12 0 0 0 .139-.18c.099-.171.166-.358.197-.552.022-.115.037-.23.046-.346V63.412c.001-.076.008-.15.022-.224.045-.296.141-.582.283-.846.29-.526.753-.936 1.311-1.161.276-.112.57-.173.868-.181h1.521l3.955.037H39.355c.294.018.581.089.85.208a2.543 2.543 0 0 1 1.486 2.016v1.746c0-.027 0 0 0 0v.181a2.093 2.093 0 0 0 .142.683 1.752 1.752 0 0 0 .69.849l.267.172c.213.128.41.257.616.386l1.182.769c1.576 1.05 3.115 2.11 4.654 3.174l.308.196.144.098.102.073c.04.027.078.057.114.09.22.187.427.392.615.612.373.426.683.901.924 1.412a5.799 5.799 0 0 1 .492 3.328 7.261 7.261 0 0 1-.415 1.583c-.044.13-.102.249-.151.371l-.08.18-.071.157-.277.613c-.366.842-.714 1.713-1.08 2.586a46.305 46.305 0 0 1-2.463 5.208 17.194 17.194 0 0 1-1.699 2.485c-.342.409-.72.786-1.13 1.127a6.042 6.042 0 0 1-1.456.92 4.749 4.749 0 0 1-1.323.358c-.08 0-.15 0-.219.021h-.209a6.437 6.437 0 0 1-1.693-.144 7.328 7.328 0 0 1-2.96-1.455 13.127 13.127 0 0 1-2.156-2.209c-.307-.392-.6-.787-.877-1.186l-.797-1.155c-.535-.76-1.09-1.531-1.613-2.377a16.325 16.325 0 0 1-1.4-2.7 9.268 9.268 0 0 1-.668-3.17c-.01-.563.04-1.124.148-1.676.114-.58.309-1.14.578-1.667a7.08 7.08 0 0 1 2.266-2.564 8.122 8.122 0 0 1 3.078-1.305 7.598 7.598 0 0 1 3.386.098 7.205 7.205 0 0 1 4.136 2.938 6.894 6.894 0 0 1 1.044 4.93 7.566 7.566 0 0 1-1.231 3.045 8.846 8.846 0 0 1-2.244 2.242 10.62 10.62 0 0 1-2.74 1.33c-.234.077-.48.153-.732.215a17.614 17.614 0 0 1-2.164.358 16.454 16.454 0 0 1-5.713-.392l.037-.267Z" fill="#8330C2"/></svg>
