<svg width="623" height="409" fill="none" xmlns="http://www.w3.org/2000/svg"><path d="M0 42h623v353c0 7.732-6.268 14-14 14H14c-7.732 0-14-6.268-14-14V42Z" fill="#fff"/><path d="M30.053 85.49c1.84.078 3.684-.104 5.473-.543.439-.108.873-.234 1.302-.377.212-.07.43-.147.634-.22.203-.074.39-.163.594-.255a9.5 9.5 0 0 0 2.154-1.375 6.08 6.08 0 0 0 2.238-4.069 4.662 4.662 0 0 0-.33-2.163 4.113 4.113 0 0 0-.529-.92 4.334 4.334 0 0 0-.732-.787 4.111 4.111 0 0 0-.89-.622 4.688 4.688 0 0 0-1.003-.386 5.154 5.154 0 0 0-2.189-.091 5.363 5.363 0 0 0-2.071.82 4.422 4.422 0 0 0-1.46 1.572 3.665 3.665 0 0 0-.36.975 5.256 5.256 0 0 0-.113 1.121c.016.789.173 1.569.462 2.304.313.8.702 1.57 1.16 2.298.462.763.982 1.516 1.508 2.3l.779 1.174c.252.374.508.741.773 1.09a10.816 10.816 0 0 0 1.717 1.839c.58.5 1.27.86 2.013 1.05.359.087.727.126 1.096.117h.141a.835.835 0 0 0 .133 0 2.17 2.17 0 0 0 .234-.034c.16-.032.317-.08.468-.144a5.1 5.1 0 0 0 1.8-1.403 13.599 13.599 0 0 0 1.496-2.144 44.475 44.475 0 0 0 2.383-4.942l1.108-2.601.307-.659.077-.165.059-.141c.04-.092.083-.184.117-.28.145-.362.249-.74.308-1.127.05-.369.05-.743 0-1.112a3.708 3.708 0 0 0-.308-1.047 4.032 4.032 0 0 0-.616-.92 3.134 3.134 0 0 0-.378-.377l-.053-.03c.022 0 0 0 0 0l-.03-.018-.145-.102-.286-.196a385.165 385.165 0 0 0-4.654-3.125l-1.167-.756c-.19-.123-.388-.249-.576-.362l-.15-.098-.185-.116a3.95 3.95 0 0 1-1.764-2.73 4.582 4.582 0 0 1-.052-.466v-.53.123-.99c0-.444 0-.38-.043-.475a.35.35 0 0 0-.166-.153.45.45 0 0 0-.111-.022h-.434l-3.955.034-.985.006h-.459a.197.197 0 0 0-.095.022.308.308 0 0 0-.139.132.31.31 0 0 0-.025.088.063.063 0 0 0 0 .025V63.786l.019.977v.579a5.127 5.127 0 0 1-.074.637 4.01 4.01 0 0 1-.459 1.33 3.434 3.434 0 0 1-.738.895c-.056.046-.114.089-.176.134l-.104.068-.059.037-.105.055.136-.077c-2.463 1.64-4.857 3.37-7.313 5.03l-.114.077-.083.062c-.053.04-.114.076-.164.12l-.147.125-.142.129c-.17.17-.318.359-.443.563a2.865 2.865 0 0 0-.397 1.406 4.205 4.205 0 0 0 .144 1.238c.019.064.037.132.056.181v.027l.024.068.05.135.797 2.068c.686 1.856 1.357 3.72 2.155 5.514.852 1.9 1.619 4.03 3.05 5.046a4.507 4.507 0 0 0 1.945.684c.59.081 1.187.112 1.782.092a.617.617 0 0 1 .597.44.609.609 0 0 1-.272.67.617.617 0 0 1-.242.087c-.52.06-1.045.08-1.57.059a7.794 7.794 0 0 1-2.268-.432 5.474 5.474 0 0 1-2.031-1.263c-1.078-1.063-1.715-2.616-2.404-3.943-.342-.658-.687-1.317-1.02-1.982a251.174 251.174 0 0 1-1.97-3.983l-.953-2.03-.059-.123-.027-.062-.043-.1a3.607 3.607 0 0 1-.13-.34 6.404 6.404 0 0 1-.194-.66 6.556 6.556 0 0 1-.184-1.378 5.414 5.414 0 0 1 .692-2.853c.251-.434.562-.83.923-1.18l.271-.244c.09-.08.185-.15.28-.224.096-.073.191-.135.29-.202l.145-.098.11-.074c2.5-1.58 5.067-3.064 7.563-4.644l.135-.077-.049.025.022-.016a.79.79 0 0 0 .064-.055 1.12 1.12 0 0 0 .139-.18c.099-.171.166-.358.197-.552a3.06 3.06 0 0 0 .046-.346V63.373c.001-.076.008-.15.022-.225.045-.295.141-.581.283-.845.29-.526.753-.936 1.311-1.161.276-.112.57-.173.868-.181h1.521l3.955.037H40.355c.294.018.581.089.85.208a2.528 2.528 0 0 1 1.487 2.016v1.746c0-.027 0 0 0 0v.181a2.097 2.097 0 0 0 .14.683 1.753 1.753 0 0 0 .69.849l.268.172c.213.128.41.257.616.386l1.182.768a342.045 342.045 0 0 1 4.654 3.175l.308.196.144.098.102.073c.04.027.078.056.114.09.22.187.427.392.615.612.373.426.683.9.924 1.412a5.798 5.798 0 0 1 .492 3.327 7.262 7.262 0 0 1-.415 1.584c-.044.13-.102.249-.151.371l-.08.18-.071.157-.277.613c-.366.842-.714 1.713-1.08 2.586a46.304 46.304 0 0 1-2.463 5.208 17.194 17.194 0 0 1-1.699 2.485c-.342.408-.72.786-1.13 1.127a6.045 6.045 0 0 1-1.456.92 4.756 4.756 0 0 1-1.323.358c-.08 0-.15 0-.219.021h-.209a6.437 6.437 0 0 1-1.693-.144 7.325 7.325 0 0 1-2.96-1.455 13.13 13.13 0 0 1-2.156-2.209c-.307-.392-.6-.787-.877-1.186l-.797-1.155c-.535-.76-1.09-1.532-1.613-2.377a16.32 16.32 0 0 1-1.4-2.7 9.267 9.267 0 0 1-.668-3.17c-.01-.563.04-1.124.148-1.676.114-.58.309-1.14.578-1.667a7.078 7.078 0 0 1 2.266-2.564 8.122 8.122 0 0 1 3.078-1.305 7.598 7.598 0 0 1 3.386.098 7.205 7.205 0 0 1 4.136 2.938 6.895 6.895 0 0 1 1.044 4.93 7.567 7.567 0 0 1-1.231 3.045 8.848 8.848 0 0 1-2.244 2.242 10.62 10.62 0 0 1-2.74 1.33c-.234.077-.48.153-.732.215a17.57 17.57 0 0 1-2.164.358 16.451 16.451 0 0 1-5.713-.392l.037-.267Z" fill="#8330C2"/><rect x="576" y="72" width="17" height="10" rx="4" fill="#EAEAEA"/><path d="M0 14C0 6.268 6.268 0 14 0h595c7.732 0 14 6.268 14 14v28H0V14Z" fill="#fff" fill-opacity=".4"/><circle cx="23" cy="21" r="8" fill="#fff"/><circle cx="48" cy="21" r="8" fill="#fff"/><circle cx="73" cy="21" r="8" fill="#fff"/></svg>
