<svg width="177" height="70" viewBox="0 0 177 70" fill="none" xmlns="http://www.w3.org/2000/svg">
<path fill-rule="evenodd" clip-rule="evenodd" d="M70.016 35.0002C70.016 54.1494 54.3415 69.6748 35.0089 69.6748C15.6745 69.6748 0 54.1494 0 35.0002C0 15.8494 15.6745 0.325684 35.0089 0.325684C54.3415 0.325684 70.016 15.8494 70.016 35.0002ZM57.2014 25.7844C56.977 25.6544 56.7216 25.5859 56.4616 25.5859C56.2016 25.5859 55.9462 25.6544 55.7219 25.7844L36.8423 36.68C36.6167 36.811 36.4296 36.9982 36.2999 37.2229C36.1701 37.4476 36.1021 37.702 36.1026 37.9608V43.7052C36.1026 44.2336 36.3822 44.72 36.8423 44.9842C37.0664 45.114 37.3215 45.1824 37.5812 45.1824C37.8409 45.1824 38.096 45.114 38.3201 44.9842L44.5318 41.3973V54.7163C44.53 54.9092 44.5667 55.1007 44.64 55.2795C44.7133 55.4584 44.8217 55.6212 44.9589 55.7584C45.0961 55.8957 45.2594 56.0048 45.4394 56.0794C45.6194 56.154 45.8126 56.1926 46.0078 56.193C46.2677 56.1925 46.5228 56.1243 46.7475 55.9953L50.4587 53.8536C50.6841 53.7227 50.8709 53.5358 51.0007 53.3115C51.1305 53.0871 51.1986 52.8331 51.1984 52.5746V37.5496L57.2014 34.0834C57.4265 33.9524 57.6132 33.7654 57.7426 33.541C57.8721 33.3166 57.9399 33.0626 57.9393 32.8043V27.0652C57.9393 26.5367 57.6562 26.0486 57.2014 25.7844V25.7844ZM36.8423 22.3024L42.7922 25.7389C42.8075 25.748 42.8202 25.7608 42.8292 25.7761C42.8382 25.7914 42.8431 25.8087 42.8435 25.8264V30.0905C42.8435 30.5401 43.3302 30.8236 43.7231 30.5979C46.0343 29.2646 52.2567 25.6811 54.5503 24.3618C54.6381 24.3106 54.7108 24.2375 54.761 24.1497C54.8112 24.062 54.8373 23.9628 54.8366 23.862C54.8359 23.7612 54.8084 23.6624 54.7569 23.5754C54.7054 23.4883 54.6317 23.4162 54.5432 23.3662L38.3201 14.0051C38.0959 13.8755 37.8409 13.8072 37.5812 13.8072C37.3215 13.8072 37.0665 13.8755 36.8423 14.0051C36.6168 14.1355 36.4298 14.322 36.3 14.5462C36.1702 14.7703 36.1021 15.0242 36.1026 15.2824V21.0251C36.1026 21.5517 36.3822 22.0399 36.8423 22.3024V22.3024ZM33.494 14.0034C33.2698 13.8738 33.0148 13.8054 32.7551 13.8054C32.4954 13.8054 32.2404 13.8738 32.0163 14.0034L15.786 23.3732C15.6982 23.4227 15.6251 23.4942 15.5741 23.5805C15.523 23.6667 15.4957 23.7647 15.495 23.8646C15.4943 23.9646 15.5201 24.0629 15.57 24.1499C15.6198 24.2368 15.6919 24.3093 15.779 24.3601C18.069 25.6759 24.3321 29.2838 26.6327 30.6084C26.7205 30.6589 26.8203 30.6855 26.9219 30.6854C27.0235 30.6853 27.1232 30.6585 27.2109 30.6078C27.2986 30.557 27.371 30.4842 27.4209 30.3967C27.4707 30.3092 27.4962 30.2101 27.4946 30.1097V25.7704L33.2055 22.4739C33.8426 22.1047 34.2355 21.4275 34.2355 20.6979V15.2824C34.2355 14.7558 33.9524 14.2676 33.4958 14.0051L33.494 14.0034ZM33.1754 36.68L14.2924 25.7879C14.0685 25.6582 13.8138 25.5899 13.5544 25.5899C13.295 25.5899 13.0403 25.6582 12.8164 25.7879C12.5909 25.9182 12.4039 26.1048 12.2741 26.3289C12.1443 26.553 12.0762 26.8069 12.0767 27.0652V32.8043C12.0767 33.3327 12.3598 33.8192 12.8164 34.0834L18.8176 37.5478V52.5746C18.8176 53.0995 19.099 53.5894 19.5556 53.8519L23.2702 55.9971C23.4959 56.1257 23.7519 56.1931 24.0124 56.1923C24.2728 56.1916 24.5284 56.1229 24.7534 55.993C24.9783 55.8632 25.1645 55.6769 25.2932 55.453C25.4218 55.2291 25.4883 54.9755 25.4859 54.718V41.399L31.6977 44.986C31.703 44.986 31.7066 44.9895 31.7101 44.9912C31.9334 45.1174 32.1863 45.1834 32.4435 45.1824C32.7007 45.1815 32.9531 45.1138 33.1754 44.986C33.401 44.8552 33.5879 44.6683 33.7177 44.4439C33.8475 44.2195 33.9156 43.9654 33.9152 43.7069V37.959C33.9152 37.4341 33.632 36.9442 33.1754 36.6817V36.68ZM89.9768 44.5713C95.2542 44.5713 98.6609 40.4559 98.6609 35.1839C98.6609 29.961 95.2542 25.8456 89.9768 25.8456H85.0764V44.5713H89.9768ZM77.7975 19.9262C77.7975 19.4626 78.1692 19.0479 78.6364 19.0479H90.0264C99.0343 19.0479 106.412 26.3058 106.412 35.1822C106.412 44.1531 99.0343 51.411 90.0246 51.411H78.6364C78.1709 51.411 77.7975 50.9963 77.7975 50.5326V19.9262ZM110.377 31.0703C110.377 30.4684 110.842 30.052 111.401 30.052H113.643C114.206 30.052 114.484 30.3302 114.624 30.6994L115.604 33.058C116.537 31.3468 118.17 29.59 120.972 29.59C122.935 29.59 124.38 30.0975 125.173 30.6994C125.549 30.9776 125.548 31.4395 125.315 31.8542L123.165 36.0623C122.935 36.4823 122.561 36.8042 121.952 36.5697C121.579 36.4333 120.786 36.2478 120.319 36.2478C118.684 36.2478 117.47 37.4061 117.47 39.2083V50.3962C117.47 51.0436 117.098 51.4145 116.305 51.4145H111.401C111.129 51.4118 110.869 51.3035 110.677 51.113C110.485 50.9225 110.377 50.6651 110.375 50.3962L110.377 31.0703ZM129.573 31.0703C129.573 30.4684 130.038 30.052 130.599 30.052H135.64C136.202 30.052 136.666 30.4684 136.666 31.0703V50.3962C136.665 50.6652 136.556 50.9229 136.364 51.1135C136.172 51.3041 135.912 51.4122 135.64 51.4145H130.598C130.326 51.4118 130.066 51.3034 129.874 51.1129C129.682 50.9224 129.574 50.6649 129.573 50.3962V31.0703ZM129.058 23.1178C129.058 20.8991 130.831 19.0496 133.072 19.0496C135.312 19.0496 137.135 20.8991 137.135 23.1178C137.135 25.2909 135.312 27.0932 133.072 27.0932C132.544 27.0927 132.022 26.9895 131.535 26.7895C131.047 26.5895 130.605 26.2965 130.232 25.9273C129.859 25.5582 129.564 25.1201 129.362 24.638C129.161 24.1559 129.057 23.6394 129.058 23.1178V23.1178ZM143.396 36.3878H141.529C141.393 36.3902 141.259 36.3654 141.133 36.315C141.007 36.2647 140.893 36.1897 140.797 36.0946C140.701 35.9995 140.625 35.8863 140.575 35.7617C140.524 35.637 140.5 35.5036 140.503 35.3694V31.0721C140.503 30.4702 140.922 30.0555 141.529 30.0555H143.396V28.2987C143.396 22.5631 146.43 18.5877 152.686 18.5877C155.485 18.5877 158.335 19.7425 159.269 20.6209C159.595 20.8554 159.687 21.4083 159.455 21.823L157.168 25.8001C157.046 25.985 156.857 26.1166 156.64 26.168C156.423 26.2194 156.194 26.1867 156 26.0766C155.3 25.6619 154.275 25.2472 153.199 25.2472C150.771 25.2472 150.489 26.5875 150.489 28.2987V30.0555H155.908C156.466 30.0555 156.933 30.4702 156.933 31.0703V35.3712C156.931 35.6401 156.822 35.8975 156.63 36.088C156.439 36.2785 156.179 36.3868 155.907 36.3895H150.489V50.3997C150.489 50.9543 149.976 51.4163 149.42 51.4163H144.423C144.154 51.4059 143.898 51.2954 143.708 51.1069C143.518 50.9184 143.406 50.6658 143.396 50.3997V36.3878ZM163.506 35.8786H161.732C161.219 35.8786 160.796 35.4149 160.796 34.8602V30.5611C160.796 29.961 161.217 29.5445 161.732 29.5445H163.506V23.6269C163.506 23.0723 163.973 22.6068 164.532 22.6068H169.666C170.183 22.6068 170.601 23.0723 170.601 23.6269V29.5445H174.944C175.501 29.5445 175.968 29.961 175.968 30.5611V34.8602C175.966 35.1292 175.858 35.3866 175.666 35.5771C175.474 35.7676 175.214 35.8759 174.942 35.8786H170.602V43.322C170.602 44.3403 171.116 44.8005 172.052 44.8005C172.795 44.8005 174.197 44.4768 174.712 44.3403C175.271 44.2003 175.784 44.4313 175.926 44.9877L176.858 49.0104C177 49.6578 176.763 49.9342 176.159 50.2124C174.712 50.8126 172.284 51.4145 169.995 51.4145C165.89 51.4145 163.508 48.8249 163.508 43.9711L163.506 35.8786Z" fill="#222222"/>
</svg>
